<svg xmlns="http://www.w3.org/2000/svg" xmlns:xlink="http://www.w3.org/1999/xlink" width="916" height="387" contentScriptType="application/ecmascript" contentStyleType="text/css" style="width:916px;height:387px" preserveAspectRatio="none" version="1.1" viewBox="0 0 916 387" zoomAndPan="magnify"><defs><filter id="fcn9libexwy9r" width="300%" height="300%" x="-1" y="-1"><feGaussianBlur result="blurOut" stdDeviation="2"/><feColorMatrix in="blurOut" result="blurOut2" type="matrix" values="0 0 0 0 0 0 0 0 0 0 0 0 0 0 0 0 0 0 .4 0"/><feOffset dx="4" dy="4" in="blurOut2" result="blurOut3"/><feBlend in="SourceGraphic" in2="blurOut3" mode="normal"/></filter></defs><g><line style="stroke:#a80036;stroke-width:1;stroke-dasharray:5,5" x1="162.5" x2="162.5" y1="38.297" y2="349.625"/><line style="stroke:#a80036;stroke-width:1;stroke-dasharray:5,5" x1="358.5" x2="358.5" y1="38.297" y2="349.625"/><line style="stroke:#a80036;stroke-width:1;stroke-dasharray:5,5" x1="515.5" x2="515.5" y1="38.297" y2="349.625"/><line style="stroke:#a80036;stroke-width:1;stroke-dasharray:5,5" x1="638.5" x2="638.5" y1="38.297" y2="349.625"/><line style="stroke:#a80036;stroke-width:1;stroke-dasharray:5,5" x1="740.5" x2="740.5" y1="38.297" y2="349.625"/><line style="stroke:#a80036;stroke-width:1;stroke-dasharray:5,5" x1="843.5" x2="843.5" y1="38.297" y2="349.625"/><rect style="stroke:#a80036;stroke-width:1.5" width="167" height="30.297" x="77.5" y="3" fill="#FEFECE" filter="url(#fcn9libexwy9r)"/><text x="84.5" y="22.995" fill="#000" font-family="sans-serif" font-size="14" lengthAdjust="spacingAndGlyphs" textLength="153">AtlasBridgeApplication</text><rect style="stroke:#a80036;stroke-width:1.5" width="167" height="30.297" x="77.5" y="348.625" fill="#FEFECE" filter="url(#fcn9libexwy9r)"/><text x="84.5" y="368.62" fill="#000" font-family="sans-serif" font-size="14" lengthAdjust="spacingAndGlyphs" textLength="153">AtlasBridgeApplication</text><rect style="stroke:#a80036;stroke-width:1.5" width="197" height="30.297" x="258.5" y="3" fill="#FEFECE" filter="url(#fcn9libexwy9r)"/><text x="265.5" y="22.995" fill="#000" font-family="sans-serif" font-size="14" lengthAdjust="spacingAndGlyphs" textLength="183">BridgeApplicationDelegate</text><rect style="stroke:#a80036;stroke-width:1.5" width="197" height="30.297" x="258.5" y="348.625" fill="#FEFECE" filter="url(#fcn9libexwy9r)"/><text x="265.5" y="368.62" fill="#000" font-family="sans-serif" font-size="14" lengthAdjust="spacingAndGlyphs" textLength="183">BridgeApplicationDelegate</text><rect style="stroke:#a80036;stroke-width:1.5" width="89" height="30.297" x="469.5" y="3" fill="#FEFECE" filter="url(#fcn9libexwy9r)"/><text x="476.5" y="22.995" fill="#000" font-family="sans-serif" font-size="14" lengthAdjust="spacingAndGlyphs" textLength="75">AtlasHacks</text><rect style="stroke:#a80036;stroke-width:1.5" width="89" height="30.297" x="469.5" y="348.625" fill="#FEFECE" filter="url(#fcn9libexwy9r)"/><text x="476.5" y="368.62" fill="#000" font-family="sans-serif" font-size="14" lengthAdjust="spacingAndGlyphs" textLength="75">AtlasHacks</text><rect style="stroke:#a80036;stroke-width:1.5" width="129" height="30.297" x="572.5" y="3" fill="#FEFECE" filter="url(#fcn9libexwy9r)"/><text x="579.5" y="22.995" fill="#000" font-family="sans-serif" font-size="14" lengthAdjust="spacingAndGlyphs" textLength="115">DemoPreLaunch</text><rect style="stroke:#a80036;stroke-width:1.5" width="129" height="30.297" x="572.5" y="348.625" fill="#FEFECE" filter="url(#fcn9libexwy9r)"/><text x="579.5" y="368.62" fill="#000" font-family="sans-serif" font-size="14" lengthAdjust="spacingAndGlyphs" textLength="115">DemoPreLaunch</text><rect style="stroke:#a80036;stroke-width:1.5" width="47" height="30.297" x="715.5" y="3" fill="#FEFECE" filter="url(#fcn9libexwy9r)"/><text x="722.5" y="22.995" fill="#000" font-family="sans-serif" font-size="14" lengthAdjust="spacingAndGlyphs" textLength="33">Atlas</text><rect style="stroke:#a80036;stroke-width:1.5" width="47" height="30.297" x="715.5" y="348.625" fill="#FEFECE" filter="url(#fcn9libexwy9r)"/><text x="722.5" y="368.62" fill="#000" font-family="sans-serif" font-size="14" lengthAdjust="spacingAndGlyphs" textLength="33">Atlas</text><rect style="stroke:#a80036;stroke-width:1.5" width="131" height="30.297" x="776.5" y="3" fill="#FEFECE" filter="url(#fcn9libexwy9r)"/><text x="783.5" y="22.995" fill="#000" font-family="sans-serif" font-size="14" lengthAdjust="spacingAndGlyphs" textLength="117">DemoApplication</text><rect style="stroke:#a80036;stroke-width:1.5" width="131" height="30.297" x="776.5" y="348.625" fill="#FEFECE" filter="url(#fcn9libexwy9r)"/><text x="783.5" y="368.62" fill="#000" font-family="sans-serif" font-size="14" lengthAdjust="spacingAndGlyphs" textLength="117">DemoApplication</text><polygon fill="#A80036" points="151 65.297 161 69.297 151 73.297 155 69.297" style="stroke:#a80036;stroke-width:1"/><line style="stroke:#a80036;stroke-width:1" x1="3" x2="157" y1="69.297" y2="69.297"/><text x="10" y="64.364" fill="#000" font-family="sans-serif" font-size="13" font-weight="bold" lengthAdjust="spacingAndGlyphs" textLength="9">1</text><text x="23" y="64.364" fill="#000" font-family="sans-serif" font-size="13" lengthAdjust="spacingAndGlyphs" textLength="123">attachBaseContext</text><polygon fill="#A80036" points="347 94.43 357 98.43 347 102.43 351 98.43" style="stroke:#a80036;stroke-width:1"/><line style="stroke:#a80036;stroke-width:1" x1="163" x2="353" y1="98.43" y2="98.43"/><text x="170" y="93.497" fill="#000" font-family="sans-serif" font-size="13" font-weight="bold" lengthAdjust="spacingAndGlyphs" textLength="9">2</text><text x="183" y="93.497" fill="#000" font-family="sans-serif" font-size="13" lengthAdjust="spacingAndGlyphs" textLength="123">attachBaseContext</text><polygon fill="#A80036" points="504 123.563 514 127.563 504 131.563 508 127.563" style="stroke:#a80036;stroke-width:1"/><line style="stroke:#a80036;stroke-width:1" x1="359" x2="510" y1="127.563" y2="127.563"/><text x="366" y="122.629" fill="#000" font-family="sans-serif" font-size="13" font-weight="bold" lengthAdjust="spacingAndGlyphs" textLength="9">3</text><text x="379" y="122.629" fill="#000" font-family="sans-serif" font-size="13" lengthAdjust="spacingAndGlyphs" textLength="100">defineAndVerify</text><polygon fill="#A80036" points="627 152.695 637 156.695 627 160.695 631 156.695" style="stroke:#a80036;stroke-width:1"/><line style="stroke:#a80036;stroke-width:1" x1="359" x2="633" y1="156.695" y2="156.695"/><text x="366" y="151.762" fill="#000" font-family="sans-serif" font-size="13" font-weight="bold" lengthAdjust="spacingAndGlyphs" textLength="9">4</text><text x="379" y="151.762" fill="#000" font-family="sans-serif" font-size="13" lengthAdjust="spacingAndGlyphs" textLength="67">preLaunch</text><polygon fill="#A80036" points="729 181.828 739 185.828 729 189.828 733 185.828" style="stroke:#a80036;stroke-width:1"/><line style="stroke:#a80036;stroke-width:1" x1="359" x2="735" y1="185.828" y2="185.828"/><text x="366" y="180.895" fill="#000" font-family="sans-serif" font-size="13" font-weight="bold" lengthAdjust="spacingAndGlyphs" textLength="9">5</text><text x="379" y="180.895" fill="#000" font-family="sans-serif" font-size="13" lengthAdjust="spacingAndGlyphs" textLength="19">init</text><polygon fill="#A80036" points="151 210.961 161 214.961 151 218.961 155 214.961" style="stroke:#a80036;stroke-width:1"/><line style="stroke:#a80036;stroke-width:1" x1="3" x2="157" y1="214.961" y2="214.961"/><text x="10" y="210.028" fill="#000" font-family="sans-serif" font-size="13" font-weight="bold" lengthAdjust="spacingAndGlyphs" textLength="9">6</text><text x="23" y="210.028" fill="#000" font-family="sans-serif" font-size="13" lengthAdjust="spacingAndGlyphs" textLength="59">onCreate</text><polygon fill="#A80036" points="347 240.094 357 244.094 347 248.094 351 244.094" style="stroke:#a80036;stroke-width:1"/><line style="stroke:#a80036;stroke-width:1" x1="163" x2="353" y1="244.094" y2="244.094"/><text x="170" y="239.161" fill="#000" font-family="sans-serif" font-size="13" font-weight="bold" lengthAdjust="spacingAndGlyphs" textLength="9">7</text><text x="183" y="239.161" fill="#000" font-family="sans-serif" font-size="13" lengthAdjust="spacingAndGlyphs" textLength="59">onCreate</text><polygon fill="#A80036" points="832 269.227 842 273.227 832 277.227 836 273.227" style="stroke:#a80036;stroke-width:1"/><line style="stroke:#a80036;stroke-width:1" x1="359" x2="838" y1="273.227" y2="273.227"/><text x="366" y="268.293" fill="#000" font-family="sans-serif" font-size="13" font-weight="bold" lengthAdjust="spacingAndGlyphs" textLength="9">8</text><text x="379" y="268.293" fill="#000" font-family="sans-serif" font-size="13" lengthAdjust="spacingAndGlyphs" textLength="41">attach</text><polygon fill="#A80036" points="729 298.359 739 302.359 729 306.359 733 302.359" style="stroke:#a80036;stroke-width:1"/><line style="stroke:#a80036;stroke-width:1" x1="359" x2="735" y1="302.359" y2="302.359"/><text x="366" y="297.426" fill="#000" font-family="sans-serif" font-size="13" font-weight="bold" lengthAdjust="spacingAndGlyphs" textLength="9">9</text><text x="379" y="297.426" fill="#000" font-family="sans-serif" font-size="13" lengthAdjust="spacingAndGlyphs" textLength="46">startup</text><polygon fill="#A80036" points="832 327.492 842 331.492 832 335.492 836 331.492" style="stroke:#a80036;stroke-width:1"/><line style="stroke:#a80036;stroke-width:1" x1="359" x2="838" y1="331.492" y2="331.492"/><text x="366" y="326.559" fill="#000" font-family="sans-serif" font-size="13" font-weight="bold" lengthAdjust="spacingAndGlyphs" textLength="18">10</text><text x="388" y="326.559" fill="#000" font-family="sans-serif" font-size="13" lengthAdjust="spacingAndGlyphs" textLength="59">onCreate</text></g></svg>