<svg xmlns="http://www.w3.org/2000/svg" xmlns:xlink="http://www.w3.org/1999/xlink" width="411" height="353" contentScriptType="application/ecmascript" contentStyleType="text/css" style="width:411px;height:353px" preserveAspectRatio="none" version="1.1" viewBox="0 0 411 353" zoomAndPan="magnify"><defs><filter id="fpphln2cef5cz" width="300%" height="300%" x="-1" y="-1"><feGaussianBlur result="blurOut" stdDeviation="2"/><feColorMatrix in="blurOut" result="blurOut2" type="matrix" values="0 0 0 0 0 0 0 0 0 0 0 0 0 0 0 0 0 0 .4 0"/><feOffset dx="4" dy="4" in="blurOut2" result="blurOut3"/><feBlend in="SourceGraphic" in2="blurOut3" mode="normal"/></filter></defs><g><polygon fill="#FFF" points="22 34 32 24 208 24 208 106 198 116 22 116 22 34" filter="url(#fpphln2cef5cz)" style="stroke:#000;stroke-width:2"/><line style="stroke:#000;stroke-width:2" x1="198" x2="207" y1="34" y2="25"/><line style="stroke:#000;stroke-width:2" x1="22" x2="198" y1="34" y2="34"/><line style="stroke:#000;stroke-width:2" x1="198" x2="198" y1="34" y2="116"/><text x="96.5" y="49.995" fill="#000" font-family="sans-serif" font-size="14" font-weight="bold" lengthAdjust="spacingAndGlyphs" textLength="29">dev</text><polygon fill="#FFF" points="60 150 70 140 340 140 340 222 330 232 60 232 60 150" filter="url(#fpphln2cef5cz)" style="stroke:#000;stroke-width:2"/><line style="stroke:#000;stroke-width:2" x1="330" x2="339" y1="150" y2="141"/><line style="stroke:#000;stroke-width:2" x1="60" x2="330" y1="150" y2="150"/><line style="stroke:#000;stroke-width:2" x1="330" x2="330" y1="150" y2="232"/><text x="144.5" y="165.995" fill="#000" font-family="sans-serif" font-size="14" font-weight="bold" lengthAdjust="spacingAndGlyphs" textLength="103">atlas compile</text><polygon fill="#FFF" points="196 266 206 256 406 256 406 338 396 348 196 348 196 266" filter="url(#fpphln2cef5cz)" style="stroke:#000;stroke-width:2"/><line style="stroke:#000;stroke-width:2" x1="396" x2="405" y1="266" y2="257"/><line style="stroke:#000;stroke-width:2" x1="196" x2="396" y1="266" y2="266"/><line style="stroke:#000;stroke-width:2" x1="396" x2="396" y1="266" y2="348"/><text x="266.5" y="281.995" fill="#000" font-family="sans-serif" font-size="14" font-weight="bold" lengthAdjust="spacingAndGlyphs" textLength="61">runtime</text><rect style="stroke:#a80036;stroke-width:1.5" width="55" height="36.297" x="38.5" y="64" fill="#FEFECE" filter="url(#fpphln2cef5cz)"/><rect style="stroke:#a80036;stroke-width:1.5" width="10" height="5" x="33.5" y="69" fill="#FEFECE"/><rect style="stroke:#a80036;stroke-width:1.5" width="10" height="5" x="33.5" y="90.297" fill="#FEFECE"/><text x="48.5" y="86.995" fill="#000" font-family="sans-serif" font-size="14" lengthAdjust="spacingAndGlyphs" textLength="35">code</text><rect style="stroke:#a80036;stroke-width:1.5" width="63" height="36.297" x="128.5" y="64" fill="#FEFECE" filter="url(#fpphln2cef5cz)"/><rect style="stroke:#a80036;stroke-width:1.5" width="10" height="5" x="123.5" y="69" fill="#FEFECE"/><rect style="stroke:#a80036;stroke-width:1.5" width="10" height="5" x="123.5" y="90.297" fill="#FEFECE"/><text x="138.5" y="86.995" fill="#000" font-family="sans-serif" font-size="14" lengthAdjust="spacingAndGlyphs" textLength="43">gradle</text><rect style="stroke:#a80036;stroke-width:1.5" width="167" height="36.297" x="76.5" y="180" fill="#FEFECE" filter="url(#fpphln2cef5cz)"/><rect style="stroke:#a80036;stroke-width:1.5" width="10" height="5" x="71.5" y="185" fill="#FEFECE"/><rect style="stroke:#a80036;stroke-width:1.5" width="10" height="5" x="71.5" y="206.297" fill="#FEFECE"/><text x="86.5" y="202.995" fill="#000" font-family="sans-serif" font-size="14" lengthAdjust="spacingAndGlyphs" textLength="147">FrameworkProperties</text><rect style="stroke:#a80036;stroke-width:1.5" width="45" height="36.297" x="278.5" y="180" fill="#FEFECE" filter="url(#fpphln2cef5cz)"/><rect style="stroke:#a80036;stroke-width:1.5" width="10" height="5" x="273.5" y="185" fill="#FEFECE"/><rect style="stroke:#a80036;stroke-width:1.5" width="10" height="5" x="273.5" y="206.297" fill="#FEFECE"/><text x="288.5" y="202.995" fill="#000" font-family="sans-serif" font-size="14" lengthAdjust="spacingAndGlyphs" textLength="25">dex</text><rect style="stroke:#a80036;stroke-width:1.5" width="177" height="36.297" x="212.5" y="296" fill="#FEFECE" filter="url(#fpphln2cef5cz)"/><rect style="stroke:#a80036;stroke-width:1.5" width="10" height="5" x="207.5" y="301" fill="#FEFECE"/><rect style="stroke:#a80036;stroke-width:1.5" width="10" height="5" x="207.5" y="322.297" fill="#FEFECE"/><text x="222.5" y="318.995" fill="#000" font-family="sans-serif" font-size="14" lengthAdjust="spacingAndGlyphs" textLength="157">getFrameworkProperty</text><path id="code-gradle" fill="none" d="M93.5391,82 C103.4138,82 113.289,82 123.163,82" style="stroke:#a80036;stroke-width:1"/><polygon fill="#A80036" points="128.327 82 119.327 78 123.327 82 119.327 86 128.327 82" style="stroke:#a80036;stroke-width:1"/><path id="gradle-FrameworkProperties" fill="none" d="M160,100.314 C160,120.266 160,153.097 160,174.882" style="stroke:#a80036;stroke-width:1"/><polygon fill="#A80036" points="160 179.896 164 170.896 160 174.896 156 170.896 160 179.896" style="stroke:#a80036;stroke-width:1"/><path id="FrameworkProperties-dex" fill="none" d="M243.719,198 C253.5,198 263.281,198 273.062,198" style="stroke:#a80036;stroke-width:1"/><polygon fill="#A80036" points="278.177 198 269.177 194 273.177 198 269.177 202 278.177 198" style="stroke:#a80036;stroke-width:1"/><path id="dex-getFrameworkProperty" fill="none" d="M301,216.314 C301,236.266 301,269.0967 301,290.8822" style="stroke:#a80036;stroke-width:1"/><polygon fill="#A80036" points="301 295.896 305 286.896 301 290.896 297 286.896 301 295.896" style="stroke:#a80036;stroke-width:1"/></g></svg>