<svg xmlns="http://www.w3.org/2000/svg" xmlns:xlink="http://www.w3.org/1999/xlink" width="642" height="326" contentScriptType="application/ecmascript" contentStyleType="text/css" style="width:642px;height:326px" preserveAspectRatio="none" version="1.1" viewBox="0 0 642 326" zoomAndPan="magnify"><defs><filter id="fop4armhx4wba" width="300%" height="300%" x="-1" y="-1"><feGaussianBlur result="blurOut" stdDeviation="2"/><feColorMatrix in="blurOut" result="blurOut2" type="matrix" values="0 0 0 0 0 0 0 0 0 0 0 0 0 0 0 0 0 0 .4 0"/><feOffset dx="4" dy="4" in="blurOut2" result="blurOut3"/><feBlend in="SourceGraphic" in2="blurOut3" mode="normal"/></filter></defs><g><line style="stroke:#a80036;stroke-width:1;stroke-dasharray:5,5" x1="65" x2="65" y1="38.297" y2="288.227"/><line style="stroke:#a80036;stroke-width:1;stroke-dasharray:5,5" x1="238.5" x2="238.5" y1="38.297" y2="288.227"/><line style="stroke:#a80036;stroke-width:1;stroke-dasharray:5,5" x1="377.5" x2="377.5" y1="38.297" y2="288.227"/><line style="stroke:#a80036;stroke-width:1;stroke-dasharray:5,5" x1="497.5" x2="497.5" y1="38.297" y2="288.227"/><rect style="stroke:#a80036;stroke-width:1.5" width="110" height="30.297" x="8" y="3" fill="#FEFECE" filter="url(#fop4armhx4wba)"/><text x="15" y="22.995" fill="#000" font-family="sans-serif" font-size="14" lengthAdjust="spacingAndGlyphs" textLength="96">ActivityThread</text><rect style="stroke:#a80036;stroke-width:1.5" width="110" height="30.297" x="8" y="287.227" fill="#FEFECE" filter="url(#fop4armhx4wba)"/><text x="15" y="307.222" fill="#000" font-family="sans-serif" font-size="14" lengthAdjust="spacingAndGlyphs" textLength="96">ActivityThread</text><rect style="stroke:#a80036;stroke-width:1.5" width="91" height="30.297" x="191.5" y="3" fill="#FEFECE" filter="url(#fop4armhx4wba)"/><text x="198.5" y="22.995" fill="#000" font-family="sans-serif" font-size="14" lengthAdjust="spacingAndGlyphs" textLength="77">LoadedApk</text><rect style="stroke:#a80036;stroke-width:1.5" width="91" height="30.297" x="191.5" y="287.227" fill="#FEFECE" filter="url(#fop4armhx4wba)"/><text x="198.5" y="307.222" fill="#000" font-family="sans-serif" font-size="14" lengthAdjust="spacingAndGlyphs" textLength="77">LoadedApk</text><rect style="stroke:#a80036;stroke-width:1.5" width="123" height="30.297" x="314.5" y="3" fill="#FEFECE" filter="url(#fop4armhx4wba)"/><text x="321.5" y="22.995" fill="#000" font-family="sans-serif" font-size="14" lengthAdjust="spacingAndGlyphs" textLength="109">Instrumentation</text><rect style="stroke:#a80036;stroke-width:1.5" width="123" height="30.297" x="314.5" y="287.227" fill="#FEFECE" filter="url(#fop4armhx4wba)"/><text x="321.5" y="307.222" fill="#000" font-family="sans-serif" font-size="14" lengthAdjust="spacingAndGlyphs" textLength="109">Instrumentation</text><rect style="stroke:#a80036;stroke-width:1.5" width="89" height="30.297" x="451.5" y="3" fill="#FEFECE" filter="url(#fop4armhx4wba)"/><text x="458.5" y="22.995" fill="#000" font-family="sans-serif" font-size="14" lengthAdjust="spacingAndGlyphs" textLength="75">Application</text><rect style="stroke:#a80036;stroke-width:1.5" width="89" height="30.297" x="451.5" y="287.227" fill="#FEFECE" filter="url(#fop4armhx4wba)"/><text x="458.5" y="307.222" fill="#000" font-family="sans-serif" font-size="14" lengthAdjust="spacingAndGlyphs" textLength="75">Application</text><polygon fill="#A80036" points="227 65.297 237 69.297 227 73.297 231 69.297" style="stroke:#a80036;stroke-width:1"/><line style="stroke:#a80036;stroke-width:1" x1="65" x2="233" y1="69.297" y2="69.297"/><text x="72" y="64.364" fill="#000" font-family="sans-serif" font-size="13" font-weight="bold" lengthAdjust="spacingAndGlyphs" textLength="9">1</text><text x="85" y="64.364" fill="#000" font-family="sans-serif" font-size="13" lengthAdjust="spacingAndGlyphs" textLength="106">makeApplication</text><polygon fill="#A80036" points="366 94.43 376 98.43 366 102.43 370 98.43" style="stroke:#a80036;stroke-width:1"/><line style="stroke:#a80036;stroke-width:1" x1="239" x2="372" y1="98.43" y2="98.43"/><text x="246" y="93.497" fill="#000" font-family="sans-serif" font-size="13" font-weight="bold" lengthAdjust="spacingAndGlyphs" textLength="9">2</text><text x="259" y="93.497" fill="#000" font-family="sans-serif" font-size="13" lengthAdjust="spacingAndGlyphs" textLength="102">Instrumentation</text><polygon fill="#A80036" points="486 123.563 496 127.563 486 131.563 490 127.563" style="stroke:#a80036;stroke-width:1"/><line style="stroke:#a80036;stroke-width:1" x1="378" x2="492" y1="127.563" y2="127.563"/><text x="385" y="122.629" fill="#000" font-family="sans-serif" font-size="13" font-weight="bold" lengthAdjust="spacingAndGlyphs" textLength="9">3</text><text x="398" y="122.629" fill="#000" font-family="sans-serif" font-size="13" lengthAdjust="spacingAndGlyphs" textLength="41">attach</text><line style="stroke:#a80036;stroke-width:1" x1="498" x2="540" y1="156.828" y2="156.828"/><line style="stroke:#a80036;stroke-width:1" x1="540" x2="540" y1="156.828" y2="169.828"/><line style="stroke:#a80036;stroke-width:1" x1="499" x2="540" y1="169.828" y2="169.828"/><polygon fill="#A80036" points="509 165.828 499 169.828 509 173.828 505 169.828" style="stroke:#a80036;stroke-width:1"/><text x="505" y="151.762" fill="#000" font-family="sans-serif" font-size="13" font-weight="bold" lengthAdjust="spacingAndGlyphs" textLength="9">4</text><text x="518" y="151.762" fill="#000" font-family="sans-serif" font-size="13" lengthAdjust="spacingAndGlyphs" textLength="123">attachBaseContext</text><line style="stroke:#a80036;stroke-width:1" x1="65" x2="107" y1="198.961" y2="198.961"/><line style="stroke:#a80036;stroke-width:1" x1="107" x2="107" y1="198.961" y2="211.961"/><line style="stroke:#a80036;stroke-width:1" x1="66" x2="107" y1="211.961" y2="211.961"/><polygon fill="#A80036" points="76 207.961 66 211.961 76 215.961 72 211.961" style="stroke:#a80036;stroke-width:1"/><text x="72" y="193.895" fill="#000" font-family="sans-serif" font-size="13" font-weight="bold" lengthAdjust="spacingAndGlyphs" textLength="9">5</text><text x="85" y="193.895" fill="#000" font-family="sans-serif" font-size="13" lengthAdjust="spacingAndGlyphs" textLength="147">installContentProviders</text><polygon fill="#A80036" points="366 236.961 376 240.961 366 244.961 370 240.961" style="stroke:#a80036;stroke-width:1"/><line style="stroke:#a80036;stroke-width:1" x1="65" x2="372" y1="240.961" y2="240.961"/><text x="72" y="236.028" fill="#000" font-family="sans-serif" font-size="13" font-weight="bold" lengthAdjust="spacingAndGlyphs" textLength="9">6</text><text x="85" y="236.028" fill="#000" font-family="sans-serif" font-size="13" lengthAdjust="spacingAndGlyphs" textLength="152">callApplicationOnCreate</text><polygon fill="#A80036" points="486 266.094 496 270.094 486 274.094 490 270.094" style="stroke:#a80036;stroke-width:1"/><line style="stroke:#a80036;stroke-width:1" x1="378" x2="492" y1="270.094" y2="270.094"/><text x="385" y="265.161" fill="#000" font-family="sans-serif" font-size="13" font-weight="bold" lengthAdjust="spacingAndGlyphs" textLength="9">7</text><text x="398" y="265.161" fill="#000" font-family="sans-serif" font-size="13" lengthAdjust="spacingAndGlyphs" textLength="59">onCreate</text></g></svg>