<svg xmlns="http://www.w3.org/2000/svg" xmlns:xlink="http://www.w3.org/1999/xlink" width="1258" height="458" contentScriptType="application/ecmascript" contentStyleType="text/css" style="width:1258px;height:458px" preserveAspectRatio="none" version="1.1" viewBox="0 0 1258 458" zoomAndPan="magnify"><defs><filter id="f6fqmuxkrm0h3" width="300%" height="300%" x="-1" y="-1"><feGaussianBlur result="blurOut" stdDeviation="2"/><feColorMatrix in="blurOut" result="blurOut2" type="matrix" values="0 0 0 0 0 0 0 0 0 0 0 0 0 0 0 0 0 0 .4 0"/><feOffset dx="4" dy="4" in="blurOut2" result="blurOut3"/><feBlend in="SourceGraphic" in2="blurOut3" mode="normal"/></filter></defs><g><line style="stroke:#a80036;stroke-width:1;stroke-dasharray:5,5" x1="85.5" x2="85.5" y1="38.297" y2="419.891"/><line style="stroke:#a80036;stroke-width:1;stroke-dasharray:5,5" x1="187.5" x2="187.5" y1="38.297" y2="419.891"/><line style="stroke:#a80036;stroke-width:1;stroke-dasharray:5,5" x1="328.5" x2="328.5" y1="38.297" y2="419.891"/><line style="stroke:#a80036;stroke-width:1;stroke-dasharray:5,5" x1="451.5" x2="451.5" y1="38.297" y2="419.891"/><line style="stroke:#a80036;stroke-width:1;stroke-dasharray:5,5" x1="557.5" x2="557.5" y1="38.297" y2="419.891"/><line style="stroke:#a80036;stroke-width:1;stroke-dasharray:5,5" x1="706.5" x2="706.5" y1="38.297" y2="419.891"/><line style="stroke:#a80036;stroke-width:1;stroke-dasharray:5,5" x1="911.5" x2="911.5" y1="38.297" y2="419.891"/><line style="stroke:#a80036;stroke-width:1;stroke-dasharray:5,5" x1="1086.5" x2="1086.5" y1="38.297" y2="419.891"/><line style="stroke:#a80036;stroke-width:1;stroke-dasharray:5,5" x1="1205.5" x2="1205.5" y1="38.297" y2="419.891"/><rect style="stroke:#a80036;stroke-width:1.5" width="47" height="30.297" x="60.5" y="3" fill="#FEFECE" filter="url(#f6fqmuxkrm0h3)"/><text x="67.5" y="22.995" fill="#000" font-family="sans-serif" font-size="14" lengthAdjust="spacingAndGlyphs" textLength="33">Atlas</text><rect style="stroke:#a80036;stroke-width:1.5" width="47" height="30.297" x="60.5" y="418.891" fill="#FEFECE" filter="url(#f6fqmuxkrm0h3)"/><text x="67.5" y="438.886" fill="#000" font-family="sans-serif" font-size="14" lengthAdjust="spacingAndGlyphs" textLength="33">Atlas</text><rect style="stroke:#a80036;stroke-width:1.5" width="129" height="30.297" x="121.5" y="3" fill="#FEFECE" filter="url(#f6fqmuxkrm0h3)"/><text x="128.5" y="22.995" fill="#000" font-family="sans-serif" font-size="14" lengthAdjust="spacingAndGlyphs" textLength="115">DexLoadBooster</text><rect style="stroke:#a80036;stroke-width:1.5" width="129" height="30.297" x="121.5" y="418.891" fill="#FEFECE" filter="url(#f6fqmuxkrm0h3)"/><text x="128.5" y="438.886" fill="#000" font-family="sans-serif" font-size="14" lengthAdjust="spacingAndGlyphs" textLength="115">DexLoadBooster</text><rect style="stroke:#a80036;stroke-width:1.5" width="125" height="30.297" x="264.5" y="3" fill="#FEFECE" filter="url(#f6fqmuxkrm0h3)"/><text x="271.5" y="22.995" fill="#000" font-family="sans-serif" font-size="14" lengthAdjust="spacingAndGlyphs" textLength="111">AndroidRuntime</text><rect style="stroke:#a80036;stroke-width:1.5" width="125" height="30.297" x="264.5" y="418.891" fill="#FEFECE" filter="url(#f6fqmuxkrm0h3)"/><text x="271.5" y="438.886" fill="#000" font-family="sans-serif" font-size="14" lengthAdjust="spacingAndGlyphs" textLength="111">AndroidRuntime</text><rect style="stroke:#a80036;stroke-width:1.5" width="93" height="30.297" x="403.5" y="3" fill="#FEFECE" filter="url(#f6fqmuxkrm0h3)"/><text x="410.5" y="22.995" fill="#000" font-family="sans-serif" font-size="14" lengthAdjust="spacingAndGlyphs" textLength="79">DalvikPatch</text><rect style="stroke:#a80036;stroke-width:1.5" width="93" height="30.297" x="403.5" y="418.891" fill="#FEFECE" filter="url(#f6fqmuxkrm0h3)"/><text x="410.5" y="438.886" fill="#000" font-family="sans-serif" font-size="14" lengthAdjust="spacingAndGlyphs" textLength="79">DalvikPatch</text><rect style="stroke:#a80036;stroke-width:1.5" width="90" height="30.297" x="510.5" y="3" fill="#FEFECE" filter="url(#f6fqmuxkrm0h3)"/><text x="517.5" y="22.995" fill="#000" font-family="sans-serif" font-size="14" lengthAdjust="spacingAndGlyphs" textLength="76">Framework</text><rect style="stroke:#a80036;stroke-width:1.5" width="90" height="30.297" x="510.5" y="418.891" fill="#FEFECE" filter="url(#f6fqmuxkrm0h3)"/><text x="517.5" y="438.886" fill="#000" font-family="sans-serif" font-size="14" lengthAdjust="spacingAndGlyphs" textLength="76">Framework</text><rect style="stroke:#a80036;stroke-width:1.5" width="181" height="30.297" x="614.5" y="3" fill="#FEFECE" filter="url(#f6fqmuxkrm0h3)"/><text x="621.5" y="22.995" fill="#000" font-family="sans-serif" font-size="14" lengthAdjust="spacingAndGlyphs" textLength="167">AtlasBundleInfoManager</text><rect style="stroke:#a80036;stroke-width:1.5" width="181" height="30.297" x="614.5" y="418.891" fill="#FEFECE" filter="url(#f6fqmuxkrm0h3)"/><text x="621.5" y="438.886" fill="#000" font-family="sans-serif" font-size="14" lengthAdjust="spacingAndGlyphs" textLength="167">AtlasBundleInfoManager</text><rect style="stroke:#a80036;stroke-width:1.5" width="201" height="30.297" x="809.5" y="3" fill="#FEFECE" filter="url(#f6fqmuxkrm0h3)"/><text x="816.5" y="22.995" fill="#000" font-family="sans-serif" font-size="14" lengthAdjust="spacingAndGlyphs" textLength="187">FrameworkLifecycleHandler</text><rect style="stroke:#a80036;stroke-width:1.5" width="201" height="30.297" x="809.5" y="418.891" fill="#FEFECE" filter="url(#f6fqmuxkrm0h3)"/><text x="816.5" y="438.886" fill="#000" font-family="sans-serif" font-size="14" lengthAdjust="spacingAndGlyphs" textLength="187">FrameworkLifecycleHandler</text><rect style="stroke:#a80036;stroke-width:1.5" width="119" height="30.297" x="1025.5" y="3" fill="#FEFECE" filter="url(#f6fqmuxkrm0h3)"/><text x="1032.5" y="22.995" fill="#000" font-family="sans-serif" font-size="14" lengthAdjust="spacingAndGlyphs" textLength="105">BundleInstalller</text><rect style="stroke:#a80036;stroke-width:1.5" width="119" height="30.297" x="1025.5" y="418.891" fill="#FEFECE" filter="url(#f6fqmuxkrm0h3)"/><text x="1032.5" y="438.886" fill="#000" font-family="sans-serif" font-size="14" lengthAdjust="spacingAndGlyphs" textLength="105">BundleInstalller</text><rect style="stroke:#a80036;stroke-width:1.5" width="91" height="30.297" x="1158.5" y="3" fill="#FEFECE" filter="url(#f6fqmuxkrm0h3)"/><text x="1165.5" y="22.995" fill="#000" font-family="sans-serif" font-size="14" lengthAdjust="spacingAndGlyphs" textLength="77">BundleImpl</text><rect style="stroke:#a80036;stroke-width:1.5" width="91" height="30.297" x="1158.5" y="418.891" fill="#FEFECE" filter="url(#f6fqmuxkrm0h3)"/><text x="1165.5" y="438.886" fill="#000" font-family="sans-serif" font-size="14" lengthAdjust="spacingAndGlyphs" textLength="77">BundleImpl</text><polygon fill="#A80036" points="74 65.297 84 69.297 74 73.297 78 69.297" style="stroke:#a80036;stroke-width:1"/><line style="stroke:#a80036;stroke-width:1" x1="3" x2="80" y1="69.297" y2="69.297"/><text x="10" y="64.364" fill="#000" font-family="sans-serif" font-size="13" font-weight="bold" lengthAdjust="spacingAndGlyphs" textLength="9">1</text><text x="23" y="64.364" fill="#000" font-family="sans-serif" font-size="13" lengthAdjust="spacingAndGlyphs" textLength="46">startup</text><polygon fill="#A80036" points="176 94.43 186 98.43 176 102.43 180 98.43" style="stroke:#a80036;stroke-width:1"/><line style="stroke:#a80036;stroke-width:1" x1="86" x2="182" y1="98.43" y2="98.43"/><text x="93" y="93.497" fill="#000" font-family="sans-serif" font-size="13" font-weight="bold" lengthAdjust="spacingAndGlyphs" textLength="9">2</text><text x="106" y="93.497" fill="#000" font-family="sans-serif" font-size="13" lengthAdjust="spacingAndGlyphs" textLength="19">init</text><polygon fill="#A80036" points="317 123.563 327 127.563 317 131.563 321 127.563" style="stroke:#a80036;stroke-width:1"/><line style="stroke:#a80036;stroke-width:1" x1="188" x2="323" y1="127.563" y2="127.563"/><text x="195" y="122.629" fill="#000" font-family="sans-serif" font-size="13" font-weight="bold" lengthAdjust="spacingAndGlyphs" textLength="9">3</text><text x="208" y="122.629" fill="#000" font-family="sans-serif" font-size="13" lengthAdjust="spacingAndGlyphs" textLength="19">init</text><polygon fill="#A80036" points="440 152.695 450 156.695 440 160.695 444 156.695" style="stroke:#a80036;stroke-width:1"/><line style="stroke:#a80036;stroke-width:1" x1="188" x2="446" y1="156.695" y2="156.695"/><text x="195" y="151.762" fill="#000" font-family="sans-serif" font-size="13" font-weight="bold" lengthAdjust="spacingAndGlyphs" textLength="9">4</text><text x="208" y="151.762" fill="#000" font-family="sans-serif" font-size="13" lengthAdjust="spacingAndGlyphs" textLength="95">patchIfPossible</text><polygon fill="#A80036" points="545.5 181.828 555.5 185.828 545.5 189.828 549.5 185.828" style="stroke:#a80036;stroke-width:1"/><line style="stroke:#a80036;stroke-width:1" x1="86" x2="551.5" y1="185.828" y2="185.828"/><text x="93" y="180.895" fill="#000" font-family="sans-serif" font-size="13" font-weight="bold" lengthAdjust="spacingAndGlyphs" textLength="9">5</text><text x="106" y="180.895" fill="#000" font-family="sans-serif" font-size="13" lengthAdjust="spacingAndGlyphs" textLength="46">startup</text><polygon fill="#A80036" points="695 210.961 705 214.961 695 218.961 699 214.961" style="stroke:#a80036;stroke-width:1"/><line style="stroke:#a80036;stroke-width:1" x1="557.5" x2="701" y1="214.961" y2="214.961"/><text x="564.5" y="210.028" fill="#000" font-family="sans-serif" font-size="13" font-weight="bold" lengthAdjust="spacingAndGlyphs" textLength="9">6</text><text x="577.5" y="210.028" fill="#000" font-family="sans-serif" font-size="13" lengthAdjust="spacingAndGlyphs" textLength="88">getBundleInfo</text><line style="stroke:#a80036;stroke-width:1" x1="707" x2="749" y1="259.359" y2="259.359"/><line style="stroke:#a80036;stroke-width:1" x1="749" x2="749" y1="259.359" y2="272.359"/><line style="stroke:#a80036;stroke-width:1" x1="708" x2="749" y1="272.359" y2="272.359"/><polygon fill="#A80036" points="718 268.359 708 272.359 718 276.359 714 272.359" style="stroke:#a80036;stroke-width:1"/><text x="714" y="246.727" fill="#000" font-family="sans-serif" font-size="13" font-weight="bold" lengthAdjust="spacingAndGlyphs" textLength="9">7</text><text x="727" y="239.161" fill="#000" font-family="sans-serif" font-size="13" lengthAdjust="spacingAndGlyphs" textLength="86">InitBundleInfo</text><text x="727" y="254.293" fill="#000" font-family="sans-serif" font-size="13" lengthAdjust="spacingAndGlyphs" textLength="105">ByVersionIfNeed</text><line style="stroke:#a80036;stroke-width:1" x1="557.5" x2="599.5" y1="301.492" y2="301.492"/><line style="stroke:#a80036;stroke-width:1" x1="599.5" x2="599.5" y1="301.492" y2="314.492"/><line style="stroke:#a80036;stroke-width:1" x1="558.5" x2="599.5" y1="314.492" y2="314.492"/><polygon fill="#A80036" points="568.5 310.492 558.5 314.492 568.5 318.492 564.5 314.492" style="stroke:#a80036;stroke-width:1"/><text x="564.5" y="296.426" fill="#000" font-family="sans-serif" font-size="13" font-weight="bold" lengthAdjust="spacingAndGlyphs" textLength="9">8</text><text x="577.5" y="296.426" fill="#000" font-family="sans-serif" font-size="13" lengthAdjust="spacingAndGlyphs" textLength="46">startup</text><polygon fill="#A80036" points="900 339.492 910 343.492 900 347.492 904 343.492" style="stroke:#a80036;stroke-width:1"/><line style="stroke:#a80036;stroke-width:1" x1="557.5" x2="906" y1="343.492" y2="343.492"/><text x="564.5" y="338.559" fill="#000" font-family="sans-serif" font-size="13" font-weight="bold" lengthAdjust="spacingAndGlyphs" textLength="9">9</text><text x="577.5" y="338.559" fill="#000" font-family="sans-serif" font-size="13" lengthAdjust="spacingAndGlyphs" textLength="46">started</text><polygon fill="#A80036" points="1075 368.625 1085 372.625 1075 376.625 1079 372.625" style="stroke:#a80036;stroke-width:1"/><line style="stroke:#a80036;stroke-width:1" x1="912" x2="1081" y1="372.625" y2="372.625"/><text x="919" y="367.692" fill="#000" font-family="sans-serif" font-size="13" font-weight="bold" lengthAdjust="spacingAndGlyphs" textLength="18">10</text><text x="941" y="367.692" fill="#000" font-family="sans-serif" font-size="13" lengthAdjust="spacingAndGlyphs" textLength="129">installBundleInternal</text><polygon fill="#A80036" points="1194 397.758 1204 401.758 1194 405.758 1198 401.758" style="stroke:#a80036;stroke-width:1"/><line style="stroke:#a80036;stroke-width:1;stroke-dasharray:2,2" x1="912" x2="1200" y1="401.758" y2="401.758"/><text x="919" y="396.825" fill="#000" font-family="sans-serif" font-size="13" font-weight="bold" lengthAdjust="spacingAndGlyphs" textLength="18">11</text><text x="941" y="396.825" fill="#000" font-family="sans-serif" font-size="13" lengthAdjust="spacingAndGlyphs" textLength="30">start</text></g></svg>