<svg xmlns="http://www.w3.org/2000/svg" xmlns:xlink="http://www.w3.org/1999/xlink" width="1386" height="773" contentScriptType="application/ecmascript" contentStyleType="text/css" style="width:1386px;height:773px" preserveAspectRatio="none" version="1.1" viewBox="0 0 1386 773" zoomAndPan="magnify"><defs><filter id="f5kf9gyx1iyiq" width="300%" height="300%" x="-1" y="-1"><feGaussianBlur result="blurOut" stdDeviation="2"/><feColorMatrix in="blurOut" result="blurOut2" type="matrix" values="0 0 0 0 0 0 0 0 0 0 0 0 0 0 0 0 0 0 .4 0"/><feOffset dx="4" dy="4" in="blurOut2" result="blurOut3"/><feBlend in="SourceGraphic" in2="blurOut3" mode="normal"/></filter></defs><g><line style="stroke:#a80036;stroke-width:1;stroke-dasharray:5,5" x1="146.5" x2="146.5" y1="38.297" y2="735.219"/><line style="stroke:#a80036;stroke-width:1;stroke-dasharray:5,5" x1="299" x2="299" y1="38.297" y2="735.219"/><line style="stroke:#a80036;stroke-width:1;stroke-dasharray:5,5" x1="444" x2="444" y1="38.297" y2="735.219"/><line style="stroke:#a80036;stroke-width:1;stroke-dasharray:5,5" x1="600" x2="600" y1="38.297" y2="735.219"/><line style="stroke:#a80036;stroke-width:1;stroke-dasharray:5,5" x1="712.5" x2="712.5" y1="38.297" y2="735.219"/><line style="stroke:#a80036;stroke-width:1;stroke-dasharray:5,5" x1="845.5" x2="845.5" y1="38.297" y2="735.219"/><line style="stroke:#a80036;stroke-width:1;stroke-dasharray:5,5" x1="1020.5" x2="1020.5" y1="38.297" y2="735.219"/><line style="stroke:#a80036;stroke-width:1;stroke-dasharray:5,5" x1="1200.5" x2="1200.5" y1="38.297" y2="735.219"/><line style="stroke:#a80036;stroke-width:1;stroke-dasharray:5,5" x1="1334.5" x2="1334.5" y1="38.297" y2="735.219"/><rect style="stroke:#a80036;stroke-width:1.5" width="167" height="30.297" x="61.5" y="3" fill="#FEFECE" filter="url(#f5kf9gyx1iyiq)"/><text x="68.5" y="22.995" fill="#000" font-family="sans-serif" font-size="14" lengthAdjust="spacingAndGlyphs" textLength="153">ActivityGroupDelegate</text><rect style="stroke:#a80036;stroke-width:1.5" width="167" height="30.297" x="61.5" y="734.219" fill="#FEFECE" filter="url(#f5kf9gyx1iyiq)"/><text x="68.5" y="754.214" fill="#000" font-family="sans-serif" font-size="14" lengthAdjust="spacingAndGlyphs" textLength="153">ActivityGroupDelegate</text><rect style="stroke:#a80036;stroke-width:1.5" width="84" height="30.297" x="255" y="3" fill="#FEFECE" filter="url(#f5kf9gyx1iyiq)"/><text x="262" y="22.995" fill="#000" font-family="sans-serif" font-size="14" lengthAdjust="spacingAndGlyphs" textLength="70">BundleUtil</text><rect style="stroke:#a80036;stroke-width:1.5" width="84" height="30.297" x="255" y="734.219" fill="#FEFECE" filter="url(#f5kf9gyx1iyiq)"/><text x="262" y="754.214" fill="#000" font-family="sans-serif" font-size="14" lengthAdjust="spacingAndGlyphs" textLength="70">BundleUtil</text><rect style="stroke:#a80036;stroke-width:1.5" width="116" height="30.297" x="384" y="3" fill="#FEFECE" filter="url(#f5kf9gyx1iyiq)"/><text x="391" y="22.995" fill="#000" font-family="sans-serif" font-size="14" lengthAdjust="spacingAndGlyphs" textLength="102">BundleInstaller</text><rect style="stroke:#a80036;stroke-width:1.5" width="116" height="30.297" x="384" y="734.219" fill="#FEFECE" filter="url(#f5kf9gyx1iyiq)"/><text x="391" y="754.214" fill="#000" font-family="sans-serif" font-size="14" lengthAdjust="spacingAndGlyphs" textLength="102">BundleInstaller</text><rect style="stroke:#a80036;stroke-width:1.5" width="90" height="30.297" x="553" y="3" fill="#FEFECE" filter="url(#f5kf9gyx1iyiq)"/><text x="560" y="22.995" fill="#000" font-family="sans-serif" font-size="14" lengthAdjust="spacingAndGlyphs" textLength="76">Framework</text><rect style="stroke:#a80036;stroke-width:1.5" width="90" height="30.297" x="553" y="734.219" fill="#FEFECE" filter="url(#f5kf9gyx1iyiq)"/><text x="560" y="754.214" fill="#000" font-family="sans-serif" font-size="14" lengthAdjust="spacingAndGlyphs" textLength="76">Framework</text><rect style="stroke:#a80036;stroke-width:1.5" width="91" height="30.297" x="665.5" y="3" fill="#FEFECE" filter="url(#f5kf9gyx1iyiq)"/><text x="672.5" y="22.995" fill="#000" font-family="sans-serif" font-size="14" lengthAdjust="spacingAndGlyphs" textLength="77">BundleImpl</text><rect style="stroke:#a80036;stroke-width:1.5" width="91" height="30.297" x="665.5" y="734.219" fill="#FEFECE" filter="url(#f5kf9gyx1iyiq)"/><text x="672.5" y="754.214" fill="#000" font-family="sans-serif" font-size="14" lengthAdjust="spacingAndGlyphs" textLength="77">BundleImpl</text><rect style="stroke:#a80036;stroke-width:1.5" width="147" height="30.297" x="770.5" y="3" fill="#FEFECE" filter="url(#f5kf9gyx1iyiq)"/><text x="777.5" y="22.995" fill="#000" font-family="sans-serif" font-size="14" lengthAdjust="spacingAndGlyphs" textLength="133">BundleClassLoader</text><rect style="stroke:#a80036;stroke-width:1.5" width="147" height="30.297" x="770.5" y="734.219" fill="#FEFECE" filter="url(#f5kf9gyx1iyiq)"/><text x="777.5" y="754.214" fill="#000" font-family="sans-serif" font-size="14" lengthAdjust="spacingAndGlyphs" textLength="133">BundleClassLoader</text><rect style="stroke:#a80036;stroke-width:1.5" width="174" height="30.297" x="931.5" y="3" fill="#FEFECE" filter="url(#f5kf9gyx1iyiq)"/><text x="938.5" y="22.995" fill="#000" font-family="sans-serif" font-size="14" lengthAdjust="spacingAndGlyphs" textLength="160">BundleLifecycleHandler</text><rect style="stroke:#a80036;stroke-width:1.5" width="174" height="30.297" x="931.5" y="734.219" fill="#FEFECE" filter="url(#f5kf9gyx1iyiq)"/><text x="938.5" y="754.214" fill="#000" font-family="sans-serif" font-size="14" lengthAdjust="spacingAndGlyphs" textLength="160">BundleLifecycleHandler</text><rect style="stroke:#a80036;stroke-width:1.5" width="152" height="30.297" x="1122.5" y="3" fill="#FEFECE" filter="url(#f5kf9gyx1iyiq)"/><text x="1129.5" y="22.995" fill="#000" font-family="sans-serif" font-size="14" lengthAdjust="spacingAndGlyphs" textLength="138">DelegateResources</text><rect style="stroke:#a80036;stroke-width:1.5" width="152" height="30.297" x="1122.5" y="734.219" fill="#FEFECE" filter="url(#f5kf9gyx1iyiq)"/><text x="1129.5" y="754.214" fill="#000" font-family="sans-serif" font-size="14" lengthAdjust="spacingAndGlyphs" textLength="138">DelegateResources</text><rect style="stroke:#a80036;stroke-width:1.5" width="89" height="30.297" x="1288.5" y="3" fill="#FEFECE" filter="url(#f5kf9gyx1iyiq)"/><text x="1295.5" y="22.995" fill="#000" font-family="sans-serif" font-size="14" lengthAdjust="spacingAndGlyphs" textLength="75">Application</text><rect style="stroke:#a80036;stroke-width:1.5" width="89" height="30.297" x="1288.5" y="734.219" fill="#FEFECE" filter="url(#f5kf9gyx1iyiq)"/><text x="1295.5" y="754.214" fill="#000" font-family="sans-serif" font-size="14" lengthAdjust="spacingAndGlyphs" textLength="75">Application</text><polygon fill="#A80036" points="135 65.297 145 69.297 135 73.297 139 69.297" style="stroke:#a80036;stroke-width:1"/><line style="stroke:#a80036;stroke-width:1" x1="3" x2="141" y1="69.297" y2="69.297"/><text x="10" y="64.364" fill="#000" font-family="sans-serif" font-size="13" font-weight="bold" lengthAdjust="spacingAndGlyphs" textLength="9">1</text><text x="23" y="64.364" fill="#000" font-family="sans-serif" font-size="13" lengthAdjust="spacingAndGlyphs" textLength="107">startChildActivity</text><line style="stroke:#a80036;stroke-width:1" x1="147" x2="189" y1="113.695" y2="113.695"/><line style="stroke:#a80036;stroke-width:1" x1="189" x2="189" y1="113.695" y2="126.695"/><line style="stroke:#a80036;stroke-width:1" x1="148" x2="189" y1="126.695" y2="126.695"/><polygon fill="#A80036" points="158 122.695 148 126.695 158 130.695 154 126.695" style="stroke:#a80036;stroke-width:1"/><text x="154" y="101.063" fill="#000" font-family="sans-serif" font-size="13" font-weight="bold" lengthAdjust="spacingAndGlyphs" textLength="9">2</text><text x="167" y="93.497" fill="#000" font-family="sans-serif" font-size="13" lengthAdjust="spacingAndGlyphs" textLength="93">execStartChild</text><text x="167" y="108.629" fill="#000" font-family="sans-serif" font-size="13" lengthAdjust="spacingAndGlyphs" textLength="94">ActivityInternal</text><line style="stroke:#a80036;stroke-width:1" x1="147" x2="189" y1="155.828" y2="155.828"/><line style="stroke:#a80036;stroke-width:1" x1="189" x2="189" y1="155.828" y2="168.828"/><line style="stroke:#a80036;stroke-width:1" x1="148" x2="189" y1="168.828" y2="168.828"/><polygon fill="#A80036" points="158 164.828 148 168.828 158 172.828 154 168.828" style="stroke:#a80036;stroke-width:1"/><text x="154" y="150.762" fill="#000" font-family="sans-serif" font-size="13" font-weight="bold" lengthAdjust="spacingAndGlyphs" textLength="9">3</text><text x="167" y="150.762" fill="#000" font-family="sans-serif" font-size="13" lengthAdjust="spacingAndGlyphs" textLength="115">asyncStartActivity</text><polygon fill="#A80036" points="287 208.828 297 212.828 287 216.828 291 212.828" style="stroke:#a80036;stroke-width:1"/><line style="stroke:#a80036;stroke-width:1" x1="147" x2="293" y1="212.828" y2="212.828"/><text x="154" y="200.461" fill="#000" font-family="sans-serif" font-size="13" font-weight="bold" lengthAdjust="spacingAndGlyphs" textLength="9">4</text><text x="167" y="192.895" fill="#000" font-family="sans-serif" font-size="13" lengthAdjust="spacingAndGlyphs" textLength="115">checkBundleArray</text><text x="167" y="208.028" fill="#000" font-family="sans-serif" font-size="13" lengthAdjust="spacingAndGlyphs" textLength="73">StateAsync</text><polygon fill="#A80036" points="432 253.094 442 257.094 432 261.094 436 257.094" style="stroke:#a80036;stroke-width:1"/><line style="stroke:#a80036;stroke-width:1" x1="299" x2="438" y1="257.094" y2="257.094"/><text x="306" y="244.727" fill="#000" font-family="sans-serif" font-size="13" font-weight="bold" lengthAdjust="spacingAndGlyphs" textLength="9">5</text><text x="319" y="237.161" fill="#000" font-family="sans-serif" font-size="13" lengthAdjust="spacingAndGlyphs" textLength="108">installTransitively</text><text x="319" y="252.293" fill="#000" font-family="sans-serif" font-size="13" lengthAdjust="spacingAndGlyphs" textLength="38">Async</text><line style="stroke:#a80036;stroke-width:1" x1="444" x2="486" y1="286.492" y2="286.492"/><line style="stroke:#a80036;stroke-width:1" x1="486" x2="486" y1="286.492" y2="299.492"/><line style="stroke:#a80036;stroke-width:1" x1="445" x2="486" y1="299.492" y2="299.492"/><polygon fill="#A80036" points="455 295.492 445 299.492 455 303.492 451 299.492" style="stroke:#a80036;stroke-width:1"/><text x="451" y="281.426" fill="#000" font-family="sans-serif" font-size="13" font-weight="bold" lengthAdjust="spacingAndGlyphs" textLength="9">6</text><text x="464" y="281.426" fill="#000" font-family="sans-serif" font-size="13" lengthAdjust="spacingAndGlyphs" textLength="129">installBundleInternal</text><line style="stroke:#a80036;stroke-width:1" x1="444" x2="486" y1="328.625" y2="328.625"/><line style="stroke:#a80036;stroke-width:1" x1="486" x2="486" y1="328.625" y2="341.625"/><line style="stroke:#a80036;stroke-width:1" x1="445" x2="486" y1="341.625" y2="341.625"/><polygon fill="#A80036" points="455 337.625 445 341.625 455 345.625 451 341.625" style="stroke:#a80036;stroke-width:1"/><text x="451" y="323.559" fill="#000" font-family="sans-serif" font-size="13" font-weight="bold" lengthAdjust="spacingAndGlyphs" textLength="9">7</text><text x="464" y="323.559" fill="#000" font-family="sans-serif" font-size="13" lengthAdjust="spacingAndGlyphs" textLength="78">deliveryTask</text><line style="stroke:#a80036;stroke-width:1;stroke-dasharray:2,2" x1="444" x2="486" y1="370.758" y2="370.758"/><line style="stroke:#a80036;stroke-width:1;stroke-dasharray:2,2" x1="486" x2="486" y1="370.758" y2="383.758"/><line style="stroke:#a80036;stroke-width:1;stroke-dasharray:2,2" x1="445" x2="486" y1="383.758" y2="383.758"/><polygon fill="#A80036" points="455 379.758 445 383.758 455 387.758 451 383.758" style="stroke:#a80036;stroke-width:1"/><text x="451" y="365.692" fill="#000" font-family="sans-serif" font-size="13" font-weight="bold" lengthAdjust="spacingAndGlyphs" textLength="9">8</text><text x="464" y="365.692" fill="#000" font-family="sans-serif" font-size="13" lengthAdjust="spacingAndGlyphs" textLength="21">call</text><polygon fill="#A80036" points="588 408.758 598 412.758 588 416.758 592 412.758" style="stroke:#a80036;stroke-width:1"/><line style="stroke:#a80036;stroke-width:1;stroke-dasharray:2,2" x1="444" x2="594" y1="412.758" y2="412.758"/><text x="451" y="407.825" fill="#000" font-family="sans-serif" font-size="13" font-weight="bold" lengthAdjust="spacingAndGlyphs" textLength="9">9</text><text x="464" y="407.825" fill="#000" font-family="sans-serif" font-size="13" lengthAdjust="spacingAndGlyphs" textLength="108">installNewBundle</text><polygon fill="#A80036" points="701 437.891 711 441.891 701 445.891 705 441.891" style="stroke:#a80036;stroke-width:1"/><line style="stroke:#a80036;stroke-width:1;stroke-dasharray:2,2" x1="600" x2="707" y1="441.891" y2="441.891"/><text x="607" y="436.957" fill="#000" font-family="sans-serif" font-size="13" font-weight="bold" lengthAdjust="spacingAndGlyphs" textLength="18">10</text><text x="629" y="436.957" fill="#000" font-family="sans-serif" font-size="13" lengthAdjust="spacingAndGlyphs" textLength="25">new</text><line style="stroke:#a80036;stroke-width:1;stroke-dasharray:2,2" x1="713" x2="755" y1="471.156" y2="471.156"/><line style="stroke:#a80036;stroke-width:1;stroke-dasharray:2,2" x1="755" x2="755" y1="471.156" y2="484.156"/><line style="stroke:#a80036;stroke-width:1;stroke-dasharray:2,2" x1="714" x2="755" y1="484.156" y2="484.156"/><polygon fill="#A80036" points="724 480.156 714 484.156 724 488.156 720 484.156" style="stroke:#a80036;stroke-width:1"/><text x="720" y="466.09" fill="#000" font-family="sans-serif" font-size="13" font-weight="bold" lengthAdjust="spacingAndGlyphs" textLength="18">11</text><text x="742" y="466.09" fill="#000" font-family="sans-serif" font-size="13" lengthAdjust="spacingAndGlyphs" textLength="90">resolveBundle</text><polygon fill="#A80036" points="834 509.156 844 513.156 834 517.156 838 513.156" style="stroke:#a80036;stroke-width:1"/><line style="stroke:#a80036;stroke-width:1;stroke-dasharray:2,2" x1="713" x2="840" y1="513.156" y2="513.156"/><text x="720" y="508.223" fill="#000" font-family="sans-serif" font-size="13" font-weight="bold" lengthAdjust="spacingAndGlyphs" textLength="18">12</text><text x="742" y="508.223" fill="#000" font-family="sans-serif" font-size="13" lengthAdjust="spacingAndGlyphs" textLength="25">new</text><polygon fill="#A80036" points="1008.5 538.289 1018.5 542.289 1008.5 546.289 1012.5 542.289" style="stroke:#a80036;stroke-width:1"/><line style="stroke:#a80036;stroke-width:1;stroke-dasharray:2,2" x1="713" x2="1014.5" y1="542.289" y2="542.289"/><text x="720" y="537.356" fill="#000" font-family="sans-serif" font-size="13" font-weight="bold" lengthAdjust="spacingAndGlyphs" textLength="18">13</text><text x="742" y="537.356" fill="#000" font-family="sans-serif" font-size="13" lengthAdjust="spacingAndGlyphs" textLength="43">loaded</text><polygon fill="#A80036" points="1188.5 567.422 1198.5 571.422 1188.5 575.422 1192.5 571.422" style="stroke:#a80036;stroke-width:1"/><line style="stroke:#a80036;stroke-width:1;stroke-dasharray:2,2" x1="1020.5" x2="1194.5" y1="571.422" y2="571.422"/><text x="1027.5" y="566.489" fill="#000" font-family="sans-serif" font-size="13" font-weight="bold" lengthAdjust="spacingAndGlyphs" textLength="18">14</text><text x="1049.5" y="566.489" fill="#000" font-family="sans-serif" font-size="13" lengthAdjust="spacingAndGlyphs" textLength="134">addBundleResources</text><polygon fill="#A80036" points="701 596.555 711 600.555 701 604.555 705 600.555" style="stroke:#a80036;stroke-width:1"/><line style="stroke:#a80036;stroke-width:1;stroke-dasharray:2,2" x1="600" x2="707" y1="600.555" y2="600.555"/><text x="607" y="595.622" fill="#000" font-family="sans-serif" font-size="13" font-weight="bold" lengthAdjust="spacingAndGlyphs" textLength="18">15</text><text x="629" y="595.622" fill="#000" font-family="sans-serif" font-size="13" lengthAdjust="spacingAndGlyphs" textLength="67">optDexFile</text><polygon fill="#A80036" points="701 625.688 711 629.688 701 633.688 705 629.688" style="stroke:#a80036;stroke-width:1"/><line style="stroke:#a80036;stroke-width:1" x1="444" x2="707" y1="629.688" y2="629.688"/><text x="451" y="624.754" fill="#000" font-family="sans-serif" font-size="13" font-weight="bold" lengthAdjust="spacingAndGlyphs" textLength="18">16</text><text x="473" y="624.754" fill="#000" font-family="sans-serif" font-size="13" lengthAdjust="spacingAndGlyphs" textLength="74">startBundle</text><polygon fill="#A80036" points="1008.5 654.82 1018.5 658.82 1008.5 662.82 1012.5 658.82" style="stroke:#a80036;stroke-width:1"/><line style="stroke:#a80036;stroke-width:1" x1="713" x2="1014.5" y1="658.82" y2="658.82"/><text x="720" y="653.887" fill="#000" font-family="sans-serif" font-size="13" font-weight="bold" lengthAdjust="spacingAndGlyphs" textLength="18">17</text><text x="742" y="653.887" fill="#000" font-family="sans-serif" font-size="13" lengthAdjust="spacingAndGlyphs" textLength="46">started</text><polygon fill="#A80036" points="1323 683.953 1333 687.953 1323 691.953 1327 687.953" style="stroke:#a80036;stroke-width:1"/><line style="stroke:#a80036;stroke-width:1" x1="1020.5" x2="1329" y1="687.953" y2="687.953"/><text x="1027.5" y="683.02" fill="#000" font-family="sans-serif" font-size="13" font-weight="bold" lengthAdjust="spacingAndGlyphs" textLength="18">18</text><text x="1049.5" y="683.02" fill="#000" font-family="sans-serif" font-size="13" lengthAdjust="spacingAndGlyphs" textLength="41">attach</text><polygon fill="#A80036" points="1323 713.086 1333 717.086 1323 721.086 1327 717.086" style="stroke:#a80036;stroke-width:1"/><line style="stroke:#a80036;stroke-width:1" x1="1020.5" x2="1329" y1="717.086" y2="717.086"/><text x="1027.5" y="712.153" fill="#000" font-family="sans-serif" font-size="13" font-weight="bold" lengthAdjust="spacingAndGlyphs" textLength="18">19</text><text x="1049.5" y="712.153" fill="#000" font-family="sans-serif" font-size="13" lengthAdjust="spacingAndGlyphs" textLength="59">onCreate</text></g></svg>