<svg xmlns="http://www.w3.org/2000/svg" xmlns:xlink="http://www.w3.org/1999/xlink" width="896" height="355" contentScriptType="application/ecmascript" contentStyleType="text/css" style="width:896px;height:355px" preserveAspectRatio="none" version="1.1" viewBox="0 0 896 355" zoomAndPan="magnify"><defs><filter id="fwdlz679awtde" width="300%" height="300%" x="-1" y="-1"><feGaussianBlur result="blurOut" stdDeviation="2"/><feColorMatrix in="blurOut" result="blurOut2" type="matrix" values="0 0 0 0 0 0 0 0 0 0 0 0 0 0 0 0 0 0 .4 0"/><feOffset dx="4" dy="4" in="blurOut2" result="blurOut3"/><feBlend in="SourceGraphic" in2="blurOut3" mode="normal"/></filter></defs><g><line style="stroke:#a80036;stroke-width:1;stroke-dasharray:5,5" x1="68" x2="68" y1="38.297" y2="317.359"/><line style="stroke:#a80036;stroke-width:1;stroke-dasharray:5,5" x1="213" x2="213" y1="38.297" y2="317.359"/><line style="stroke:#a80036;stroke-width:1;stroke-dasharray:5,5" x1="325.5" x2="325.5" y1="38.297" y2="317.359"/><line style="stroke:#a80036;stroke-width:1;stroke-dasharray:5,5" x1="458.5" x2="458.5" y1="38.297" y2="317.359"/><line style="stroke:#a80036;stroke-width:1;stroke-dasharray:5,5" x1="633.5" x2="633.5" y1="38.297" y2="317.359"/><line style="stroke:#a80036;stroke-width:1;stroke-dasharray:5,5" x1="813.5" x2="813.5" y1="38.297" y2="317.359"/><rect style="stroke:#a80036;stroke-width:1.5" width="116" height="30.297" x="8" y="3" fill="#FEFECE" filter="url(#fwdlz679awtde)"/><text x="15" y="22.995" fill="#000" font-family="sans-serif" font-size="14" lengthAdjust="spacingAndGlyphs" textLength="102">BundleInstaller</text><rect style="stroke:#a80036;stroke-width:1.5" width="116" height="30.297" x="8" y="316.359" fill="#FEFECE" filter="url(#fwdlz679awtde)"/><text x="15" y="336.354" fill="#000" font-family="sans-serif" font-size="14" lengthAdjust="spacingAndGlyphs" textLength="102">BundleInstaller</text><rect style="stroke:#a80036;stroke-width:1.5" width="90" height="30.297" x="166" y="3" fill="#FEFECE" filter="url(#fwdlz679awtde)"/><text x="173" y="22.995" fill="#000" font-family="sans-serif" font-size="14" lengthAdjust="spacingAndGlyphs" textLength="76">Framework</text><rect style="stroke:#a80036;stroke-width:1.5" width="90" height="30.297" x="166" y="316.359" fill="#FEFECE" filter="url(#fwdlz679awtde)"/><text x="173" y="336.354" fill="#000" font-family="sans-serif" font-size="14" lengthAdjust="spacingAndGlyphs" textLength="76">Framework</text><rect style="stroke:#a80036;stroke-width:1.5" width="91" height="30.297" x="278.5" y="3" fill="#FEFECE" filter="url(#fwdlz679awtde)"/><text x="285.5" y="22.995" fill="#000" font-family="sans-serif" font-size="14" lengthAdjust="spacingAndGlyphs" textLength="77">BundleImpl</text><rect style="stroke:#a80036;stroke-width:1.5" width="91" height="30.297" x="278.5" y="316.359" fill="#FEFECE" filter="url(#fwdlz679awtde)"/><text x="285.5" y="336.354" fill="#000" font-family="sans-serif" font-size="14" lengthAdjust="spacingAndGlyphs" textLength="77">BundleImpl</text><rect style="stroke:#a80036;stroke-width:1.5" width="147" height="30.297" x="383.5" y="3" fill="#FEFECE" filter="url(#fwdlz679awtde)"/><text x="390.5" y="22.995" fill="#000" font-family="sans-serif" font-size="14" lengthAdjust="spacingAndGlyphs" textLength="133">BundleClassLoader</text><rect style="stroke:#a80036;stroke-width:1.5" width="147" height="30.297" x="383.5" y="316.359" fill="#FEFECE" filter="url(#fwdlz679awtde)"/><text x="390.5" y="336.354" fill="#000" font-family="sans-serif" font-size="14" lengthAdjust="spacingAndGlyphs" textLength="133">BundleClassLoader</text><rect style="stroke:#a80036;stroke-width:1.5" width="174" height="30.297" x="544.5" y="3" fill="#FEFECE" filter="url(#fwdlz679awtde)"/><text x="551.5" y="22.995" fill="#000" font-family="sans-serif" font-size="14" lengthAdjust="spacingAndGlyphs" textLength="160">BundleLifecycleHandler</text><rect style="stroke:#a80036;stroke-width:1.5" width="174" height="30.297" x="544.5" y="316.359" fill="#FEFECE" filter="url(#fwdlz679awtde)"/><text x="551.5" y="336.354" fill="#000" font-family="sans-serif" font-size="14" lengthAdjust="spacingAndGlyphs" textLength="160">BundleLifecycleHandler</text><rect style="stroke:#a80036;stroke-width:1.5" width="152" height="30.297" x="735.5" y="3" fill="#FEFECE" filter="url(#fwdlz679awtde)"/><text x="742.5" y="22.995" fill="#000" font-family="sans-serif" font-size="14" lengthAdjust="spacingAndGlyphs" textLength="138">DelegateResources</text><rect style="stroke:#a80036;stroke-width:1.5" width="152" height="30.297" x="735.5" y="316.359" fill="#FEFECE" filter="url(#fwdlz679awtde)"/><text x="742.5" y="336.354" fill="#000" font-family="sans-serif" font-size="14" lengthAdjust="spacingAndGlyphs" textLength="138">DelegateResources</text><line style="stroke:#a80036;stroke-width:1;stroke-dasharray:2,2" x1="68" x2="110" y1="69.43" y2="69.43"/><line style="stroke:#a80036;stroke-width:1;stroke-dasharray:2,2" x1="110" x2="110" y1="69.43" y2="82.43"/><line style="stroke:#a80036;stroke-width:1;stroke-dasharray:2,2" x1="69" x2="110" y1="82.43" y2="82.43"/><polygon fill="#A80036" points="79 78.43 69 82.43 79 86.43 75 82.43" style="stroke:#a80036;stroke-width:1"/><text x="75" y="64.364" fill="#000" font-family="sans-serif" font-size="13" font-weight="bold" lengthAdjust="spacingAndGlyphs" textLength="9">8</text><text x="88" y="64.364" fill="#000" font-family="sans-serif" font-size="13" lengthAdjust="spacingAndGlyphs" textLength="21">call</text><polygon fill="#A80036" points="201 107.43 211 111.43 201 115.43 205 111.43" style="stroke:#a80036;stroke-width:1"/><line style="stroke:#a80036;stroke-width:1;stroke-dasharray:2,2" x1="68" x2="207" y1="111.43" y2="111.43"/><text x="75" y="106.497" fill="#000" font-family="sans-serif" font-size="13" font-weight="bold" lengthAdjust="spacingAndGlyphs" textLength="9">9</text><text x="88" y="106.497" fill="#000" font-family="sans-serif" font-size="13" lengthAdjust="spacingAndGlyphs" textLength="108">installNewBundle</text><polygon fill="#A80036" points="314 136.563 324 140.563 314 144.563 318 140.563" style="stroke:#a80036;stroke-width:1"/><line style="stroke:#a80036;stroke-width:1;stroke-dasharray:2,2" x1="213" x2="320" y1="140.563" y2="140.563"/><text x="220" y="135.629" fill="#000" font-family="sans-serif" font-size="13" font-weight="bold" lengthAdjust="spacingAndGlyphs" textLength="18">10</text><text x="242" y="135.629" fill="#000" font-family="sans-serif" font-size="13" lengthAdjust="spacingAndGlyphs" textLength="25">new</text><line style="stroke:#a80036;stroke-width:1;stroke-dasharray:2,2" x1="326" x2="368" y1="169.828" y2="169.828"/><line style="stroke:#a80036;stroke-width:1;stroke-dasharray:2,2" x1="368" x2="368" y1="169.828" y2="182.828"/><line style="stroke:#a80036;stroke-width:1;stroke-dasharray:2,2" x1="327" x2="368" y1="182.828" y2="182.828"/><polygon fill="#A80036" points="337 178.828 327 182.828 337 186.828 333 182.828" style="stroke:#a80036;stroke-width:1"/><text x="333" y="164.762" fill="#000" font-family="sans-serif" font-size="13" font-weight="bold" lengthAdjust="spacingAndGlyphs" textLength="18">11</text><text x="355" y="164.762" fill="#000" font-family="sans-serif" font-size="13" lengthAdjust="spacingAndGlyphs" textLength="90">resolveBundle</text><polygon fill="#A80036" points="447 207.828 457 211.828 447 215.828 451 211.828" style="stroke:#a80036;stroke-width:1"/><line style="stroke:#a80036;stroke-width:1;stroke-dasharray:2,2" x1="326" x2="453" y1="211.828" y2="211.828"/><text x="333" y="206.895" fill="#000" font-family="sans-serif" font-size="13" font-weight="bold" lengthAdjust="spacingAndGlyphs" textLength="18">12</text><text x="355" y="206.895" fill="#000" font-family="sans-serif" font-size="13" lengthAdjust="spacingAndGlyphs" textLength="25">new</text><polygon fill="#A80036" points="621.5 236.961 631.5 240.961 621.5 244.961 625.5 240.961" style="stroke:#a80036;stroke-width:1"/><line style="stroke:#a80036;stroke-width:1;stroke-dasharray:2,2" x1="326" x2="627.5" y1="240.961" y2="240.961"/><text x="333" y="236.028" fill="#000" font-family="sans-serif" font-size="13" font-weight="bold" lengthAdjust="spacingAndGlyphs" textLength="18">13</text><text x="355" y="236.028" fill="#000" font-family="sans-serif" font-size="13" lengthAdjust="spacingAndGlyphs" textLength="43">loaded</text><polygon fill="#A80036" points="801.5 266.094 811.5 270.094 801.5 274.094 805.5 270.094" style="stroke:#a80036;stroke-width:1"/><line style="stroke:#a80036;stroke-width:1;stroke-dasharray:2,2" x1="633.5" x2="807.5" y1="270.094" y2="270.094"/><text x="640.5" y="265.161" fill="#000" font-family="sans-serif" font-size="13" font-weight="bold" lengthAdjust="spacingAndGlyphs" textLength="18">14</text><text x="662.5" y="265.161" fill="#000" font-family="sans-serif" font-size="13" lengthAdjust="spacingAndGlyphs" textLength="134">addBundleResources</text><polygon fill="#A80036" points="314 295.227 324 299.227 314 303.227 318 299.227" style="stroke:#a80036;stroke-width:1"/><line style="stroke:#a80036;stroke-width:1;stroke-dasharray:2,2" x1="213" x2="320" y1="299.227" y2="299.227"/><text x="220" y="294.293" fill="#000" font-family="sans-serif" font-size="13" font-weight="bold" lengthAdjust="spacingAndGlyphs" textLength="18">15</text><text x="242" y="294.293" fill="#000" font-family="sans-serif" font-size="13" lengthAdjust="spacingAndGlyphs" textLength="67">optDexFile</text></g></svg>